<svg width="512" height="512" viewBox="0 0 512 512" fill="none" xmlns="http://www.w3.org/2000/svg" role="img" aria-labelledby="title desc">
  <title id="title">Liberia Digital Insights logo</title>
  <desc id="desc">Shield shaped Liberia Digital Insights logo with computer icon.</desc>
  <defs>
    <linearGradient id="outer" x1="110" y1="90" x2="400" y2="430" gradientUnits="userSpaceOnUse">
      <stop stop-color="#F08A55"/>
      <stop offset="0.45" stop-color="#8C1024"/>
      <stop offset="1" stop-color="#F97316"/>
    </linearGradient>
    <linearGradient id="inner" x1="180" y1="130" x2="340" y2="390" gradientUnits="userSpaceOnUse">
      <stop stop-color="#B81F2B"/>
      <stop offset="1" stop-color="#5F0C19"/>
    </linearGradient>
    <filter id="shadow" x="70" y="70" width="372" height="388" filterUnits="userSpaceOnUse" color-interpolation-filters="sRGB">
      <feDropShadow dx="0" dy="16" stdDeviation="16" flood-color="#000000" flood-opacity="0.32"/>
    </filter>
  </defs>

  <rect width="512" height="512" fill="transparent"/>
  <g filter="url(#shadow)">
    <path d="M256 82L384 158V354L256 432L128 354V158L256 82Z" fill="url(#outer)"/>
    <path d="M256 109L356 169V338L256 399L156 338V169L256 109Z" fill="url(#inner)"/>
    <path d="M256 82L384 158V354L256 432L128 354V158L256 82Z" stroke="#F3A36F" stroke-width="9" stroke-linejoin="round"/>
    <path d="M171 170L256 119L341 170V338L256 389L171 338V170Z" stroke="#EE7F3A" stroke-width="14" stroke-linejoin="round" opacity="0.85"/>
  </g>

  <g filter="url(#shadow)">
    <text x="256" y="215" text-anchor="middle" font-family="Inter, Arial, sans-serif" font-size="61" font-weight="900" letter-spacing="2" fill="#FFF8F7">LIBERIA</text>
    <text x="256" y="260" text-anchor="middle" font-family="Inter, Arial, sans-serif" font-size="31" font-weight="900" letter-spacing="1" fill="#FFF8F7">DIGITAL INSIGHTS</text>
  </g>

  <g transform="translate(208 292)" fill="#FFF8F7">
    <rect x="0" y="0" width="96" height="70" rx="10"/>
    <rect x="10" y="10" width="76" height="46" rx="6" fill="#7A1022"/>
    <rect x="18" y="17" width="60" height="32" rx="4" fill="#F4F4F4"/>
    <rect x="42" y="70" width="12" height="22" rx="2"/>
    <rect x="26" y="88" width="44" height="9" rx="4.5"/>
  </g>
</svg>
